HIERARCHY
ROOT SpineBase
{
  OFFSET 0.000000 0.000000 0.000000
  CHANNELS 6 Xposition Yposition Zposition Zrotation Xrotation Yrotation
  JOINT SpineMid
  {
    OFFSET 0.000000 31.276218 0.000000
    CHANNELS 3 Zrotation Xrotation Yrotation
    JOINT SpineShoulder
    {
      OFFSET -0.202799 23.279237 -0.752395
      CHANNELS 3 Zrotation Xrotation Yrotation
      JOINT Neck
      {
        OFFSET -0.144924 7.706248 -0.564154
        CHANNELS 3 Zrotation Xrotation Yrotation
        JOINT Head
        {
          OFFSET 4.911763 14.057696 -0.346552
          CHANNELS 3 Zrotation Xrotation Yrotation
          End Site
          {
            OFFSET 0 0 0
          }
        }
      }
      JOINT ShoulderLeft
      {
        OFFSET -16.078885 -2.407747 -6.570465
        CHANNELS 3 Zrotation Xrotation Yrotation
        JOINT ElbowLeft
        {
          OFFSET -6.558700 -22.969286 -4.417641
          CHANNELS 3 Zrotation Xrotation Yrotation
          JOINT WristLeft
          {
            OFFSET 1.308565 -21.438785 -5.826678
            CHANNELS 3 Zrotation Xrotation Yrotation
            JOINT HandLeft
            {
              OFFSET -0.645637 -3.716019 -1.611881
              CHANNELS 3 Zrotation Xrotation Yrotation
              JOINT HandTipLeft
              {
                OFFSET 0.286639 -6.371816 -3.301602
                CHANNELS 3 Zrotation Xrotation Yrotation
                End Site
                {
                  OFFSET 0 0 0
                }
              }
              JOINT ThumbLeft
              {
                OFFSET -1.937435 -3.189167 -3.592275
                CHANNELS 3 Zrotation Xrotation Yrotation
                End Site
                {
                  OFFSET 0 0 0
                }
              }
            }
          }
        }
      }
      JOINT ShoulderRight
      {
        OFFSET 16.469752 -6.644674 5.417599
        CHANNELS 3 Zrotation Xrotation Yrotation
        JOINT ElbowRight
        {
          OFFSET 0.508372 -26.242226 -0.439420
          CHANNELS 3 Zrotation Xrotation Yrotation
          JOINT WristRight
          {
            OFFSET -2.605188 -20.752494 -7.942044
            CHANNELS 3 Zrotation Xrotation Yrotation
            JOINT HandRight
            {
              OFFSET -2.942847 -2.942782 -0.849276
              CHANNELS 3 Zrotation Xrotation Yrotation
              JOINT HandTipRight
              {
                OFFSET -0.903508 -7.816797 -0.246266
                CHANNELS 3 Zrotation Xrotation Yrotation
                End Site
                {
                  OFFSET 0 0 0
                }
              }
              JOINT ThumbRight
              {
                OFFSET -3.464387 -0.035777 -2.341248
                CHANNELS 3 Zrotation Xrotation Yrotation
                End Site
                {
                  OFFSET 0 0 0
                }
              }
            }
          }
        }
      }
    }
  }
  JOINT HipLeft
  {
    OFFSET -8.180194 1.561718 -6.061919
    CHANNELS 3 Zrotation Xrotation Yrotation
    JOINT KneeLeft
    {
      OFFSET -8.596986 -28.487778 -3.696249
      CHANNELS 3 Zrotation Xrotation Yrotation
      JOINT AnkleLeft
      {
        OFFSET -2.821444 -34.130263 8.904530
        CHANNELS 3 Zrotation Xrotation Yrotation
        JOINT FootLeft
        {
          OFFSET 1.688221 -7.678534 -6.362073
          CHANNELS 3 Zrotation Xrotation Yrotation
          End Site
          {
            OFFSET 0 0 0
          }
        }
      }
    }
  }
  JOINT HipRight
  {
    OFFSET 6.753322 -0.415818 -0.918885
    CHANNELS 3 Zrotation Xrotation Yrotation
    JOINT KneeRight
    {
      OFFSET 0.540969 -29.978631 3.728592
      CHANNELS 3 Zrotation Xrotation Yrotation
      JOINT AnkleRight
      {
        OFFSET -1.922700 -33.888949 10.166968
        CHANNELS 3 Zrotation Xrotation Yrotation
        JOINT FootRight
        {
          OFFSET 2.330100 -4.209483 -12.986322
          CHANNELS 3 Zrotation Xrotation Yrotation
          End Site
          {
            OFFSET 0 0 0
          }
        }
      }
    }
  }
}
MOTION
Frames: 8
Frame Time: 0.033333
85.273199 103.787493 418.190366 -0.000000 0.000000 -19.003470 -0.000000 0.000000 19.003470 -0.000000 0.000000 0.000000 -0.000000 0.000000 0.000000 0.000000 0.000000 0.000000 -0.000000 0.000000 0.000000 -0.000000 0.000000 0.000000 -0.000000 0.000000 0.000000 -0.000000 0.000000 0.000000 0.000000 0.000000 0.000000 0.000000 0.000000 0.000000 -0.000000 0.000000 0.000000 -0.000000 0.000000 0.000000 -0.000000 0.000000 0.000000 -0.000000 0.000000 0.000000 0.000000 0.000000 0.000000 0.000000 0.000000 0.000000 -0.000000 0.000000 19.003470 -0.000000 0.000000 0.000000 -0.000000 0.000000 0.000000 0.000000 0.000000 0.000000 -0.000000 0.000000 19.003470 -0.000000 0.000000 0.000000 -0.000000 0.000000 0.000000 0.000000 0.000000 0.000000
85.190337 103.797045 418.169589 0.108247 -0.050259 -18.914456 -0.118694 0.012456 18.914517 -0.000000 0.000000 0.000000 -0.000000 0.000000 0.000000 0.000000 0.000000 0.000000 -0.000000 0.000000 0.000000 -0.000000 0.000000 0.000000 3.306239 -5.483285 -0.331284 -1.278421 1.859483 -0.719308 0.000000 0.000000 0.000000 0.000000 0.000000 0.000000 -0.000000 0.000000 0.000000 0.658139 -0.587019 -0.175280 -0.659966 0.584964 0.182021 -0.817218 1.388454 -0.124693 0.000000 0.000000 0.000000 0.000000 0.000000 0.000000 -0.118694 0.012456 18.914517 -0.000000 0.000000 0.000000 1.646923 10.783949 0.793333 0.000000 0.000000 0.000000 -0.118694 0.012456 18.914517 -0.000000 0.000000 0.000000 -0.000000 0.000000 0.000000 0.000000 0.000000 0.000000
85.115383 103.805492 418.151514 0.199274 -0.091375 -18.841945 -0.218106 0.022121 18.842146 -0.000000 0.000000 0.000000 -0.000000 0.000000 0.000000 0.000000 0.000000 0.000000 -0.000000 0.000000 0.000000 -0.000000 0.000000 0.000000 5.838592 -9.501238 -0.413111 -1.985712 2.450000 -1.403435 0.000000 0.000000 0.000000 0.000000 0.000000 0.000000 0.823207 -0.423478 -0.018945 0.417263 -0.716094 -0.305058 -2.549541 1.879091 0.004362 -0.187392 2.076174 0.120738 0.000000 0.000000 0.000000 0.000000 0.000000 0.000000 -0.218106 0.022121 18.842146 -0.000000 0.000000 0.000000 2.770586 18.357554 1.165013 0.000000 0.000000 0.000000 -0.218106 0.022121 18.842146 -0.000000 0.000000 0.000000 -0.000000 0.000000 0.000000 0.000000 0.000000 0.000000
85.048335 103.812832 418.136140 0.273106 -0.123361 -18.786229 -0.298284 0.028837 18.786598 -0.000000 0.000000 0.000000 -0.000000 0.000000 0.000000 0.000000 0.000000 0.000000 0.776235 -0.508041 -0.000787 -0.776273 0.507984 0.007670 7.868091 -12.518472 -0.393665 -2.472442 2.455125 -1.959107 0.000000 0.000000 0.000000 0.000000 0.000000 0.000000 1.177718 -0.586378 -0.025051 0.569284 -1.070507 -0.419239 -3.680149 2.987543 -0.229617 -0.057860 2.940376 0.410611 0.000000 0.000000 0.000000 0.000000 0.000000 0.000000 -0.298284 0.028837 18.786598 -0.000000 0.000000 0.000000 3.534276 23.368351 1.315467 0.000000 0.000000 0.000000 -0.298284 0.028837 18.786598 -0.000000 0.000000 0.000000 -0.000000 0.000000 0.000000 0.000000 0.000000 0.000000
84.989195 103.819066 418.123467 0.329765 -0.146225 -18.747538 -0.359265 0.032479 18.748061 -0.000000 0.000000 0.000000 -0.000000 0.000000 0.000000 0.000000 0.000000 0.000000 0.970217 -0.690303 0.016412 -0.970090 0.690482 -0.004722 9.559684 -14.837190 -0.340465 -2.986585 2.371906 -2.295581 0.000000 0.000000 0.000000 0.000000 0.000000 0.000000 1.495519 -0.717544 -0.029575 0.682530 -1.420682 -0.508329 -4.691697 4.221551 -0.637287 0.239102 3.640029 0.864674 0.000000 0.000000 0.000000 0.000000 0.000000 0.000000 -0.359265 0.032479 18.748061 -0.000000 0.000000 0.000000 4.030897 26.408344 1.350780 0.000000 0.000000 0.000000 -0.359265 0.032479 18.748061 -0.000000 0.000000 0.000000 -0.000000 0.000000 0.000000 0.000000 0.000000 0.000000
84.937961 103.824193 418.113497 0.369260 -0.159973 -18.726037 -0.401071 0.032953 18.726668 -0.000000 0.000000 0.000000 -0.000000 0.000000 0.000000 0.000000 0.000000 0.000000 1.133552 -0.880400 0.042266 -1.133036 0.881064 -0.024845 11.019781 -16.654112 -0.285695 -3.700403 2.551388 -2.342627 0.000000 0.000000 0.000000 0.000000 0.000000 0.000000 1.777472 -0.817477 -0.032915 0.756417 -1.765604 -0.572792 -5.563912 5.583866 -1.226010 0.711462 4.144541 1.488696 0.000000 0.000000 0.000000 0.000000 0.000000 0.000000 -0.401071 0.032953 18.726668 -0.000000 0.000000 0.000000 4.310358 27.862613 1.323746 0.000000 0.000000 0.000000 -0.401071 0.032953 18.726668 -0.000000 0.000000 0.000000 -0.000000 0.000000 0.000000 0.000000 0.000000 0.000000
84.890054 103.826310 418.104522 0.361223 -0.153189 -18.722896 -0.391280 0.029130 18.723478 -0.000000 0.000000 0.000000 -0.000000 0.000000 0.000000 0.000000 0.000000 0.000000 1.201783 -1.015647 0.069853 -1.200733 1.016888 -0.048545 12.605875 -18.376055 -0.244334 -5.154759 3.824549 -1.838535 0.000000 0.000000 0.000000 0.000000 0.000000 0.000000 2.099837 -0.914613 -0.036114 0.466960 -1.871637 -0.548152 -3.930693 6.306803 -2.325816 -2.027953 5.724076 2.258119 0.000000 0.000000 0.000000 0.000000 0.000000 0.000000 -0.391280 0.029130 18.723478 -0.000000 0.000000 0.000000 3.937728 25.181153 1.243858 0.000000 0.000000 0.000000 -0.391280 0.029130 18.723478 -0.000000 0.000000 0.000000 -0.000000 0.000000 0.000000 0.000000 0.000000 0.000000
84.849754 103.829266 418.100707 0.354202 -0.142049 -18.744616 -0.381062 0.020690 18.745124 -0.000000 0.000000 0.000000 1.150466 -0.017738 0.034860 0.000000 0.000000 0.000000 1.207497 -1.182416 0.118449 -1.205308 1.184647 -0.093527 13.506319 -19.303743 -0.212169 -5.261470 3.507871 -2.046383 0.000000 0.000000 0.000000 0.000000 0.000000 0.000000 2.342048 -0.957616 -0.038189 0.612097 -2.437940 -0.597508 -7.951941 9.424553 -3.155771 0.945548 4.018407 3.658904 0.000000 0.000000 0.000000 0.000000 0.000000 0.000000 -0.381062 0.020690 18.745124 -0.000000 0.000000 0.000000 3.184672 19.809974 1.046025 0.000000 0.000000 0.000000 -0.381062 0.020690 18.745124 -0.000000 0.000000 0.000000 -0.000000 0.000000 0.000000 0.000000 0.000000 0.000000
